<svg xmlns="http://www.w3.org/2000/svg" width="24" height="24" viewBox="0 0 24 24" fill="#000"><path d="M20 0a4 4 0 0 1 4 4v16a4 4 0 0 1-4 4H4a4 4 0 0 1-4-4V4a4 4 0 0 1 4-4h16zm-8 4a8.04 8.04 0 0 0-7.37 4.89 7.95 7.95 0 0 0 .74 7.58A8.06 8.06 0 0 0 12 20a7.98 7.98 0 0 0 5.66-13.66A8 8 0 0 0 12 4zm1.16 9.12l.05-.02.21.57c.8 2.24 1.15 4.07 1.25 4.62a6.8 6.8 0 0 1-6.8-.84l-.07-.06.04-.07c.23-.45 1.65-2.92 5.32-4.2zm5.59-.04a6.84 6.84 0 0 1-2.93 4.59l-.1-.5c-.16-.83-.53-2.47-1.23-4.38a9.9 9.9 0 0 1 4.26.3zm-6.56-2.27c.2.38.38.77.55 1.16l-.27.08c-2.99.97-4.78 3.34-5.36 4.2l-.2.31-.18-.21A6.8 6.8 0 0 1 5.17 12v-.22h.38c1 0 3.77-.11 6.64-.97zm5.09-3.15a6.8 6.8 0 0 1 1.55 4.27l-.43-.08c-.79-.13-2.55-.37-4.33-.14l-.15-.35c-.14-.34-.3-.67-.45-1a8.78 8.78 0 0 0 3.8-2.7zm-8.2-1.84l.5.69c.49.7 1.28 1.9 2.04 3.25-3.28.87-6.13.83-6.3.83a6.84 6.84 0 0 1 3.76-4.77zM12 5.17c1.73 0 3.3.64 4.51 1.7l-.09.13a7.86 7.86 0 0 1-3.48 2.35l-.25-.46c-1.1-1.92-2.2-3.4-2.3-3.53.52-.12 1.06-.2 1.61-.2z"/></svg>